<svg xmlns="http://www.w3.org/2000/svg" viewBox="0 0 512 512" width="512" height="512">
  <defs>
    <linearGradient id="bg" x1="0%" y1="0%" x2="100%" y2="100%">
      <stop offset="0%" style="stop-color:#00c853"/>
      <stop offset="100%" style="stop-color:#009624"/>
    </linearGradient>
  </defs>
  <rect width="512" height="512" rx="96" fill="url(#bg)"/>
  <!-- Motorcycle icon (simplified from Font Awesome fa-motorcycle) -->
  <g transform="translate(56, 120) scale(0.78)" fill="#ffffff">
    <path d="M400 192h-44.4c-7.5-14.6-19.1-26.3-33.6-33.6L368 112h-48l-34.4 34.4c-5.2-.9-10.5-1.4-16-1.4H208c-5.5 0-10.8.5-16 1.4L158 112h-48l46 46.4c-14.5 7.3-26.1 19-33.6 33.6H80c-44.2 0-80 35.8-80 80s35.8 80 80 80 80-35.8 80-80c0-5.5-.6-10.8-1.6-16h163.2c-1 5.2-1.6 10.5-1.6 16 0 44.2 35.8 80 80 80s80-35.8 80-80-35.8-80-80-80zm-320 112c-17.7 0-32-14.3-32-32s14.3-32 32-32 32 14.3 32 32-14.3 32-32 32zm128-48H152.8c7.6-14.8 19.5-26.7 34.2-34.2l.1-.1c9.7-5 20.6-7.7 32-7.7h61.8c11.4 0 22.3 2.7 32 7.7l.1.1c14.7 7.5 26.6 19.4 34.2 34.2H208zm192 48c-17.7 0-32-14.3-32-32s14.3-32 32-32 32 14.3 32 32-14.3 32-32 32z"/>
  </g>
</svg>
